<?xml version="1.0" encoding="UTF-8" standalone="no"?><svg xmlns="http://www.w3.org/2000/svg" xmlns:xlink="http://www.w3.org/1999/xlink" contentStyleType="text/css" height="1345px" preserveAspectRatio="none" style="width:357px;height:1345px;background:#FFFFFF;" version="1.1" viewBox="0 0 357 1345" width="357px" zoomAndPan="magnify"><defs/><g><!--MD5=[fee662a292a0353a69bd162820bae93b]
entity User--><g id="elem_User"><ellipse cx="27.5" cy="134" fill="#F1F1F1" rx="8" ry="8" style="stroke:#181818;stroke-width:0.5;"/><path d="M27.5,142 L27.5,169 M14.5,150 L40.5,150 M27.5,169 L14.5,184 M27.5,169 L40.5,184 " fill="none" style="stroke:#181818;stroke-width:0.5;"/><text fill="#000000" font-family="sans-serif" font-size="14" lengthAdjust="spacing" textLength="32" x="11.5" y="198.4951">User</text></g><!--MD5=[97ab183161fd5d1db7fba7485cf76add]
entity Admin--><g id="elem_Admin"><ellipse cx="27.5" cy="752" fill="#F1F1F1" rx="8" ry="8" style="stroke:#181818;stroke-width:0.5;"/><path d="M27.5,760 L27.5,787 M14.5,768 L40.5,768 M27.5,787 L14.5,802 M27.5,787 L40.5,802 " fill="none" style="stroke:#181818;stroke-width:0.5;"/><text fill="#000000" font-family="sans-serif" font-size="14" lengthAdjust="spacing" textLength="43" x="6" y="816.4951">Admin</text></g><g id="elem_Create Account"><ellipse cx="253.3844" cy="239.4769" fill="#F1F1F1" rx="75.3844" ry="17.4769" style="stroke:#181818;stroke-width:0.5;"/><text fill="#000000" font-family="sans-serif" font-size="14" lengthAdjust="spacing" textLength="107" x="196.8844" y="243.2244">Create Account</text></g><g id="elem_Login"><ellipse cx="253.7231" cy="392.5485" fill="#F1F1F1" rx="37.7231" ry="14.5485" style="stroke:#181818;stroke-width:0.5;"/><text fill="#000000" font-family="sans-serif" font-size="14" lengthAdjust="spacing" textLength="37" x="233.6116" y="395.9312">Login</text></g><g id="elem_Update Profile"><ellipse cx="253.6781" cy="22.6356" fill="#F1F1F1" rx="71.1781" ry="16.6356" style="stroke:#181818;stroke-width:0.5;"/><text fill="#000000" font-family="sans-serif" font-size="14" lengthAdjust="spacing" textLength="96" x="202.6781" y="26.3832">Update Profile</text></g><g id="elem_Reset Password"><ellipse cx="253.3536" cy="92.3707" fill="#F1F1F1" rx="77.3536" ry="17.8707" style="stroke:#181818;stroke-width:0.5;"/><text fill="#000000" font-family="sans-serif" font-size="14" lengthAdjust="spacing" textLength="112" x="194.6333" y="96.0454">Reset Password</text></g><g id="elem_Receive Notifications"><ellipse cx="253.5567" cy="166.5113" fill="#F1F1F1" rx="90.5567" ry="20.5113" style="stroke:#181818;stroke-width:0.5;"/><text fill="#000000" font-family="sans-serif" font-size="14" lengthAdjust="spacing" textLength="143" x="182.0567" y="169.358">Receive Notifications</text></g><g id="elem_View Dashboard"><ellipse cx="253.3536" cy="781.3707" fill="#F1F1F1" rx="77.3536" ry="17.8707" style="stroke:#181818;stroke-width:0.5;"/><text fill="#000000" font-family="sans-serif" font-size="14" lengthAdjust="spacing" textLength="112" x="194.6333" y="785.0454">View Dashboard</text></g><g id="elem_Validate User Accounts"><ellipse cx="253.711" cy="555.4422" fill="#F1F1F1" rx="97.711" ry="21.9422" style="stroke:#181818;stroke-width:0.5;"/><text fill="#000000" font-family="sans-serif" font-size="14" lengthAdjust="spacing" textLength="159" x="174.211" y="558.2889">Validate User Accounts</text></g><g id="elem_Approve User"><ellipse cx="253.5634" cy="645.4127" fill="#F1F1F1" rx="70.0634" ry="16.4127" style="stroke:#181818;stroke-width:0.5;"/><text fill="#000000" font-family="sans-serif" font-size="14" lengthAdjust="spacing" textLength="93" x="204.0634" y="649.1602">Approve User</text></g><g id="elem_Reject User"><ellipse cx="253.42" cy="712.484" fill="#F1F1F1" rx="65.42" ry="15.484" style="stroke:#181818;stroke-width:0.5;"/><text fill="#000000" font-family="sans-serif" font-size="14" lengthAdjust="spacing" textLength="80" x="210.42" y="716.2316">Reject User</text></g><g id="elem_Manage User Data"><ellipse cx="253.5656" cy="1231.6131" fill="#F1F1F1" rx="83.5656" ry="19.1131" style="stroke:#181818;stroke-width:0.5;"/><text fill="#000000" font-family="sans-serif" font-size="14" lengthAdjust="spacing" textLength="127" x="189.6623" y="1234.5974">Manage User Data</text></g><g id="elem_Generate Reports"><ellipse cx="253.288" cy="920.3576" fill="#F1F1F1" rx="82.288" ry="18.8576" style="stroke:#181818;stroke-width:0.5;"/><text fill="#000000" font-family="sans-serif" font-size="14" lengthAdjust="spacing" textLength="124" x="190.4505" y="923.4838">Generate Reports</text></g><g id="elem_Send Notifications"><ellipse cx="253.288" cy="1076.3576" fill="#F1F1F1" rx="82.288" ry="18.8576" style="stroke:#181818;stroke-width:0.5;"/><text fill="#000000" font-family="sans-serif" font-size="14" lengthAdjust="spacing" textLength="124" x="190.4505" y="1079.4838">Send Notifications</text></g><g id="elem_Archive User"><ellipse cx="253.5233" cy="850.4047" fill="#F1F1F1" rx="67.5233" ry="15.9047" style="stroke:#181818;stroke-width:0.5;"/><text fill="#000000" font-family="sans-serif" font-size="14" lengthAdjust="spacing" textLength="86" x="207.5233" y="854.1522">Archive User</text></g><g id="elem_Validate Inputs"><ellipse cx="253.5678" cy="325.5136" fill="#F1F1F1" rx="73.0678" ry="17.0136" style="stroke:#181818;stroke-width:0.5;"/><text fill="#000000" font-family="sans-serif" font-size="14" lengthAdjust="spacing" textLength="101" x="200.0678" y="329.2611">Validate Inputs</text></g><g id="elem_Validate Credentials"><ellipse cx="253.4744" cy="478.3949" fill="#F1F1F1" rx="87.4744" ry="19.8949" style="stroke:#181818;stroke-width:0.5;"/><text fill="#000000" font-family="sans-serif" font-size="14" lengthAdjust="spacing" textLength="136" x="185.4744" y="481.2416">Validate Credentials</text></g><g id="elem_Create PDF"><ellipse cx="253.7353" cy="1006.3471" fill="#F1F1F1" rx="64.7353" ry="15.3471" style="stroke:#181818;stroke-width:0.5;"/><text fill="#000000" font-family="sans-serif" font-size="14" lengthAdjust="spacing" textLength="78" x="211.7353" y="1010.0946">Create PDF</text></g><g id="elem_Send Email"><ellipse cx="253.5594" cy="1162.7119" fill="#F1F1F1" rx="64.0594" ry="15.2119" style="stroke:#181818;stroke-width:0.5;"/><text fill="#000000" font-family="sans-serif" font-size="14" lengthAdjust="spacing" textLength="76" x="212.5594" y="1166.4594">Send Email</text></g><g id="elem_CRUD Operations"><ellipse cx="253.5271" cy="1320.6054" fill="#F1F1F1" rx="81.0271" ry="18.6054" style="stroke:#181818;stroke-width:0.5;"/><text fill="#000000" font-family="sans-serif" font-size="14" lengthAdjust="spacing" textLength="121" x="191.7415" y="1323.8718">CRUD Operations</text></g><!--MD5=[e57142d967caf0b3901c490be10b748c]
link User to Create Account--><g id="link_User_Create Account"><path d="M43.86,179.8 C53.19,188.73 65.82,199.23 79,205.5 C109.39,219.94 145.58,228.25 177.01,233.03 " fill="none" id="User-to-Create Account" style="stroke:#181818;stroke-width:1.0;"/><polygon fill="#181818" points="182.02,233.77,173.6995,228.5003,177.0734,233.0409,172.5329,236.4148,182.02,233.77" style="stroke:#181818;stroke-width:1.0;"/></g><!--MD5=[5af6d7c3e037f74f83175e2986cdce5e]
link User to Login--><g id="link_User_Login"><path d="M43.51,183.15 C53.54,196.28 67.05,213.94 79,229.5 C99.84,256.65 108.68,260.98 126,290.5 C143.13,319.69 131.07,337.6 156,360.5 C171.45,374.69 193.34,382.6 212.38,387.01 " fill="none" id="User-to-Login" style="stroke:#181818;stroke-width:1.0;"/><polygon fill="#181818" points="217.66,388.16,209.7257,382.325,212.7761,387.089,208.0121,390.1393,217.66,388.16" style="stroke:#181818;stroke-width:1.0;"/></g><!--MD5=[56e4fefc3b16662ad257076ebda5644c]
link User to Update Profile--><g id="link_User_Update Profile"><path d="M43.62,142.3 C52.96,130.09 65.68,114.94 79,103.5 C115.69,71.99 166.7,50.14 203.91,37.14 " fill="none" id="User-to-Update Profile" style="stroke:#181818;stroke-width:1.0;"/><polygon fill="#181818" points="208.84,35.44,199.028,34.5888,204.1125,37.0682,201.6331,42.1527,208.84,35.44" style="stroke:#181818;stroke-width:1.0;"/></g><!--MD5=[c97dbe69eac2eea2db6d658676fc8ce7]
link User to Reset Password--><g id="link_User_Reset Password"><path d="M43.56,154.62 C53.4,149.11 66.65,142.21 79,137.5 C114.6,123.91 155.84,113.03 189.18,105.37 " fill="none" id="User-to-Reset Password" style="stroke:#181818;stroke-width:1.0;"/><polygon fill="#181818" points="194.46,104.17,184.7947,102.2775,189.5859,105.2849,186.5785,110.0761,194.46,104.17" style="stroke:#181818;stroke-width:1.0;"/></g><!--MD5=[90246ab64f7061149d1faafa923bdcfe]
link User to Receive Notifications--><g id="link_User_Receive Notifications"><path d="M43.55,163.7 C67.06,164.02 114.38,164.65 158.04,165.23 " fill="none" id="User-to-Receive Notifications" style="stroke:#181818;stroke-width:1.0;"/><polygon fill="#181818" points="163.07,165.3,154.1281,161.1718,158.0705,165.2286,154.0138,169.171,163.07,165.3" style="stroke:#181818;stroke-width:1.0;"/></g><!--MD5=[387b3728521fa8204e27f46f1fdadbfb]
link Admin to Login--><g id="link_Admin_Login"><path d="M31.67,743.16 C36.74,695.14 49.35,611.18 79,545.5 C102.66,493.08 112.07,478.62 156,441.5 C175.26,425.22 200.86,412.54 220.85,404.16 " fill="none" id="Admin-to-Login" style="stroke:#181818;stroke-width:1.0;"/><polygon fill="#181818" points="225.54,402.23,215.6952,401.9473,220.9145,404.1287,218.7332,409.3481,225.54,402.23" style="stroke:#181818;stroke-width:1.0;"/></g><!--MD5=[ca34ddb2cd598425184da633a6cf591e]
link Admin to View Dashboard--><g id="link_Admin_View Dashboard"><path d="M49.17,781.5 C76.76,781.5 127.21,781.5 170.95,781.5 " fill="none" id="Admin-to-View Dashboard" style="stroke:#181818;stroke-width:1.0;"/><polygon fill="#181818" points="175.98,781.5,166.98,777.5,170.98,781.5,166.98,785.5,175.98,781.5" style="stroke:#181818;stroke-width:1.0;"/></g><!--MD5=[f952eba1122477e7cc66f59b2fedf7a6]
link Admin to Validate User Accounts--><g id="link_Admin_Validate User Accounts"><path d="M33.32,743.27 C40.57,692.2 55.92,605.69 79,584.5 C98.72,566.4 125.28,557.29 151.68,553.14 " fill="none" id="Admin-to-Validate User Accounts" style="stroke:#181818;stroke-width:1.0;"/><polygon fill="#181818" points="156.95,552.38,147.4715,549.7045,152.0011,553.0931,148.6125,557.6227,156.95,552.38" style="stroke:#181818;stroke-width:1.0;"/></g><!--MD5=[74e3718c5c947831302cc123680c72f1]
link Admin to Approve User--><g id="link_Admin_Approve User"><path d="M49.17,752.64 C57.65,742.04 68.04,730.46 79,721.5 C115.31,691.82 165,671.63 201.9,659.56 " fill="none" id="Admin-to-Approve User" style="stroke:#181818;stroke-width:1.0;"/><polygon fill="#181818" points="206.79,657.98,196.995,656.9517,202.0339,659.5225,199.463,664.5614,206.79,657.98" style="stroke:#181818;stroke-width:1.0;"/></g><!--MD5=[eec844d1ebfa4fb751760de66b335556]
link Admin to Reject User--><g id="link_Admin_Reject User"><path d="M49.13,769.5 C58.09,764.65 68.85,759.31 79,755.5 C117.07,741.2 161.64,730.28 196.06,723.01 " fill="none" id="Admin-to-Reject User" style="stroke:#181818;stroke-width:1.0;"/><polygon fill="#181818" points="201.07,721.97,191.4448,719.8829,196.1744,722.9863,193.071,727.7159,201.07,721.97" style="stroke:#181818;stroke-width:1.0;"/></g><!--MD5=[3cc48a1d304e1d84fb7e184980d69de8]
link Admin to Manage User Data--><g id="link_Admin_Manage User Data"><path d="M28.62,819.75 C31.04,901.12 48.56,1092.4 156,1195.5 C165.28,1204.41 176.97,1211.15 188.98,1216.25 " fill="none" id="Admin-to-Manage User Data" style="stroke:#181818;stroke-width:1.0;"/><polygon fill="#181818" points="193.77,1218.19,186.9256,1211.1081,189.1346,1216.3158,183.9268,1218.5248,193.77,1218.19" style="stroke:#181818;stroke-width:1.0;"/></g><!--MD5=[22bfbe7a76628475e2a813914ea38301]
link Admin to Generate Reports--><g id="link_Admin_Generate Reports"><path d="M49.05,801.66 C73.04,824.3 114.72,860.96 156,884.5 C168.98,891.9 183.76,898.31 197.8,903.58 " fill="none" id="Admin-to-Generate Reports" style="stroke:#181818;stroke-width:1.0;"/><polygon fill="#181818" points="202.52,905.32,195.4606,898.4523,197.829,903.5895,192.6918,905.9579,202.52,905.32" style="stroke:#181818;stroke-width:1.0;"/></g><!--MD5=[77bc9ee1ea599caeba8fe36ea0e2be4c]
link Admin to Send Notifications--><g id="link_Admin_Send Notifications"><path d="M37.83,819.74 C53.3,875.41 89.34,978.76 156,1039.5 C166.04,1048.65 178.58,1055.62 191.27,1060.91 " fill="none" id="Admin-to-Send Notifications" style="stroke:#181818;stroke-width:1.0;"/><polygon fill="#181818" points="195.94,1062.78,189.0768,1055.7163,191.2996,1060.9181,186.0978,1063.1409,195.94,1062.78" style="stroke:#181818;stroke-width:1.0;"/></g><!--MD5=[ecb53304588ee87126f2e3a92d169e40]
link Admin to Archive User--><g id="link_Admin_Archive User"><path d="M49.17,787.87 C84.77,798.83 158.47,821.54 206.67,836.38 " fill="none" id="Admin-to-Archive User" style="stroke:#181818;stroke-width:1.0;"/><polygon fill="#181818" points="211.55,837.88,204.1284,831.4054,206.772,836.4066,201.7709,839.0502,211.55,837.88" style="stroke:#181818;stroke-width:1.0;"/></g><!--MD5=[395cdc5597ae0fcf115b06912323c1e9]
link Create Account to Validate Inputs--><g id="link_Create Account_Validate Inputs"><path d="M253.5,257.17 C253.5,270.44 253.5,288.71 253.5,303.02 " fill="none" id="Create Account-to-Validate Inputs" style="stroke:#181818;stroke-width:1.0;stroke-dasharray:7.0,7.0;"/><polygon fill="#181818" points="253.5,308.1,257.5,299.1,253.5,303.1,249.5,299.1,253.5,308.1" style="stroke:#181818;stroke-width:1.0;"/><text fill="#000000" font-family="sans-serif" font-size="13" lengthAdjust="spacing" textLength="45" x="219.5" y="287.3169">include</text></g><!--MD5=[3537a0f77eae996dd8db74a018297ba8]
link Login to Validate Credentials--><g id="link_Login_Validate Credentials"><path d="M253.5,407.09 C253.5,419.57 253.5,437.85 253.5,452.78 " fill="none" id="Login-to-Validate Credentials" style="stroke:#181818;stroke-width:1.0;stroke-dasharray:7.0,7.0;"/><polygon fill="#181818" points="253.5,458.12,257.5,449.12,253.5,453.12,249.5,449.12,253.5,458.12" style="stroke:#181818;stroke-width:1.0;"/><text fill="#000000" font-family="sans-serif" font-size="13" lengthAdjust="spacing" textLength="45" x="219.5" y="437.3169">include</text></g><!--MD5=[ddaff7506d19cc56ef8e5ed11968310c]
link Update Profile to Validate Inputs--><g id="link_Update Profile_Validate Inputs"><path d="M195.67,32.14 C180.94,37.18 166.36,44.84 156,56.5 C75.63,146.98 97.71,301.98 104,309 C125.08,332.54 159.63,337.51 190.21,336.21 " fill="none" id="Update Profile-to-Validate Inputs" style="stroke:#181818;stroke-width:1.0;stroke-dasharray:7.0,7.0;"/><polygon fill="#181818" points="195.48,335.92,186.2759,332.4152,190.4874,336.1918,186.7108,340.4033,195.48,335.92" style="stroke:#181818;stroke-width:1.0;"/><text fill="#000000" font-family="sans-serif" font-size="13" lengthAdjust="spacing" textLength="45" x="80" y="305.0669">include</text></g><!--MD5=[4bfe97587a1e8ba4e192d8bc95260417]
link Reset Password to Validate Inputs--><g id="link_Reset Password_Validate Inputs"><path d="M202.36,106.1 C186.7,111.62 169.93,118.99 156,128.5 C127.27,148.11 116.36,154.48 104,187 C82.32,244.03 157.68,287.07 209.18,309.09 " fill="none" id="Reset Password-to-Validate Inputs" style="stroke:#181818;stroke-width:1.0;stroke-dasharray:7.0,7.0;"/><polygon fill="#181818" points="214.09,311.16,207.3475,303.9809,209.4818,309.2197,204.2431,311.354,214.09,311.16" style="stroke:#181818;stroke-width:1.0;"/><text fill="#000000" font-family="sans-serif" font-size="13" lengthAdjust="spacing" textLength="45" x="80" y="200.0669">include</text></g><!--MD5=[2e18916af22f889d2606e2c1c0ab8c0d]
link Generate Reports to Create PDF--><g id="link_Generate Reports_Create PDF"><path d="M253.5,939.79 C253.5,953.34 253.5,971.48 253.5,985.42 " fill="none" id="Generate Reports-to-Create PDF" style="stroke:#181818;stroke-width:1.0;stroke-dasharray:7.0,7.0;"/><polygon fill="#181818" points="253.5,990.73,257.5,981.73,253.5,985.73,249.5,981.73,253.5,990.73" style="stroke:#181818;stroke-width:1.0;"/><text fill="#000000" font-family="sans-serif" font-size="13" lengthAdjust="spacing" textLength="45" x="219.5" y="969.8169">include</text></g><!--MD5=[09c410dacec83959532f59c717b36703]
link Send Notifications to Send Email--><g id="link_Send Notifications_Send Email"><path d="M253.5,1095.65 C253.5,1109.35 253.5,1127.76 253.5,1141.79 " fill="none" id="Send Notifications-to-Send Email" style="stroke:#181818;stroke-width:1.0;stroke-dasharray:7.0,7.0;"/><polygon fill="#181818" points="253.5,1147.12,257.5,1138.12,253.5,1142.12,249.5,1138.12,253.5,1147.12" style="stroke:#181818;stroke-width:1.0;"/><text fill="#000000" font-family="sans-serif" font-size="13" lengthAdjust="spacing" textLength="45" x="219.5" y="1126.0669">include</text></g><!--MD5=[a7357e8512439829e69f6e8279a68959]
link Manage User Data to CRUD Operations--><g id="link_Manage User Data_CRUD Operations"><path d="M253.5,1250.65 C253.5,1264.08 253.5,1282.12 253.5,1296.51 " fill="none" id="Manage User Data-to-CRUD Operations" style="stroke:#181818;stroke-width:1.0;stroke-dasharray:7.0,7.0;"/><polygon fill="#181818" points="253.5,1301.63,257.5,1292.63,253.5,1296.63,249.5,1292.63,253.5,1301.63" style="stroke:#181818;stroke-width:1.0;"/><text fill="#000000" font-family="sans-serif" font-size="13" lengthAdjust="spacing" textLength="45" x="219.5" y="1280.8169">include</text></g><!--MD5=[f5b43c7e40f787ec2ab8ee26cf60965f]
link Validate User Accounts to Approve User--><g id="link_Validate User Accounts_Approve User"><path d="M253.5,577.67 C253.5,591.68 253.5,609.72 253.5,623.67 " fill="none" id="Validate User Accounts-to-Approve User" style="stroke:#181818;stroke-width:1.0;stroke-dasharray:7.0,7.0;"/><polygon fill="#181818" points="253.5,628.99,257.5,619.99,253.5,623.99,249.5,619.99,253.5,628.99" style="stroke:#181818;stroke-width:1.0;"/><text fill="#000000" font-family="sans-serif" font-size="13" lengthAdjust="spacing" textLength="44" x="220" y="607.8169">extend</text></g><!--MD5=[ad0fd953834f3b3650e7a7c6dd26a385]
link Validate User Accounts to Reject User--><g id="link_Validate User Accounts_Reject User"><path d="M157.71,559.77 C137.13,565.39 117.65,575.24 104.5,592 C76.65,627.5 119.62,652.8 156,679.5 C168.68,688.81 184.18,695.62 199.05,700.55 " fill="none" id="Validate User Accounts-to-Reject User" style="stroke:#181818;stroke-width:1.0;stroke-dasharray:7.0,7.0;"/><polygon fill="#181818" points="204.06,702.15,196.7151,695.5885,199.2997,700.6204,194.2678,703.205,204.06,702.15" style="stroke:#181818;stroke-width:1.0;"/><text fill="#000000" font-family="sans-serif" font-size="13" lengthAdjust="spacing" textLength="44" x="80.5" y="605.0669">extend</text></g><!--MD5=[108de887413ce597dda1912eb4b4e5c6]
@startuml
' Force vertical layout with actors on the left and use cases on the right
left to right direction
skinparam layout direction left_to_right

actor User
actor Admin

User - -> (Create Account)
User - -> (Login)
User - -> (Update Profile)
User - -> (Reset Password)
User - -> (Receive Notifications)

Admin - -> (Login)
Admin - -> (View Dashboard)
Admin - -> (Validate User Accounts)
Admin - -> (Approve User)
Admin - -> (Reject User)
Admin - -> (Manage User Data)
Admin - -> (Generate Reports)
Admin - -> (Send Notifications)
Admin - -> (Archive User)

(Create Account).> (Validate Inputs) : include
(Login).> (Validate Credentials) : include
(Update Profile).> (Validate Inputs) : include
(Reset Password).> (Validate Inputs) : include
(Generate Reports).> (Create PDF) : include
(Send Notifications).> (Send Email) : include
(Manage User Data).> (CRUD Operations) : include
(Validate User Accounts).> (Approve User) : extend
(Validate User Accounts).> (Reject User) : extend
@enduml

@startuml
left to right direction
skinparam layout direction left_to_right

actor User
actor Admin

User - -> (Create Account)
User - -> (Login)
User - -> (Update Profile)
User - -> (Reset Password)
User - -> (Receive Notifications)

Admin - -> (Login)
Admin - -> (View Dashboard)
Admin - -> (Validate User Accounts)
Admin - -> (Approve User)
Admin - -> (Reject User)
Admin - -> (Manage User Data)
Admin - -> (Generate Reports)
Admin - -> (Send Notifications)
Admin - -> (Archive User)

(Create Account).> (Validate Inputs) : include
(Login).> (Validate Credentials) : include
(Update Profile).> (Validate Inputs) : include
(Reset Password).> (Validate Inputs) : include
(Generate Reports).> (Create PDF) : include
(Send Notifications).> (Send Email) : include
(Manage User Data).> (CRUD Operations) : include
(Validate User Accounts).> (Approve User) : extend
(Validate User Accounts).> (Reject User) : extend
@enduml

PlantUML version 1.2022.7(Mon Aug 22 17:01:30 UTC 2022)
(GPL source distribution)
Java Runtime: OpenJDK Runtime Environment
JVM: OpenJDK 64-Bit Server VM
Default Encoding: UTF-8
Language: en
Country: null
--></g></svg>